<?xml version="1.0" standalone="no"?><!DOCTYPE svg PUBLIC "-//W3C//DTD SVG 1.1//EN" "http://www.w3.org/Graphics/SVG/1.1/DTD/svg11.dtd"><svg t="1690814508595" class="icon" viewBox="0 0 1024 1024" version="1.1" xmlns="http://www.w3.org/2000/svg" p-id="2362" data-spm-anchor-id="a313x.7781069.0.i1" xmlns:xlink="http://www.w3.org/1999/xlink" width="50" height="50"><path d="M677.59 356.46v314.31c0 10.97 8.88 19.85 19.85 19.85s19.85-8.88 19.85-19.85V356.46c0-10.97-8.88-19.85-19.85-19.85s-19.85 8.88-19.85 19.85zM542.99 585.05l37.95 93.14c4.13 10.14 15.72 15.1 25.87 10.9 10.16-4.13 15.04-15.72 10.9-25.87l-43.05-105.64c-0.02-0.05-0.05-0.11-0.07-0.16L488.04 345a19.832 19.832 0 0 0-18.38-12.36h-0.01c-8.07 0-15.34 4.9-18.38 12.37L321.59 664.04c-4.13 10.16 0.76 21.74 10.92 25.87 2.45 0.99 4.98 1.47 7.47 1.47 7.84 0 15.27-4.68 18.41-12.39l38.18-93.94h146.42z m-73.31-179.89l57.13 140.2H412.7l56.98-140.2zM687.4 143.32c27.58 13.15 53.62 29.33 77.38 48.08 3.65 2.87 7.99 4.27 12.29 4.27 5.87 0 11.68-2.58 15.6-7.55 6.8-8.6 5.32-21.1-3.28-27.89-26.08-20.58-54.65-38.33-84.9-52.76-9.85-4.67-21.73-0.52-26.47 9.38-4.71 9.9-0.52 21.74 9.38 26.47zM512 103.7c21.11 0 42.6 1.71 63.86 5.05 10.7 1.78 20.99-5.68 22.7-16.52 1.71-10.82-5.68-20.99-16.52-22.7C558.74 65.85 535.18 64 512 64 264.97 64 64 264.97 64 512c0 97.86 31 190.85 89.66 268.89 3.9 5.2 9.87 7.94 15.89 7.93 4.16 0 8.34-1.3 11.91-3.98 8.77-6.59 10.53-19.04 3.95-27.8C131.96 685.92 103.7 601.19 103.7 512c0-225.14 183.16-408.3 408.3-408.3zM336.97 880.87c-27.75-13.21-53.92-29.45-77.76-48.27-8.58-6.77-21.09-5.33-27.89 3.28-6.8 8.6-5.32 21.09 3.28 27.89 26.17 20.65 54.86 38.47 85.3 52.95 2.75 1.32 5.66 1.94 8.52 1.94 7.42 0 14.54-4.18 17.94-11.33 4.72-9.9 0.52-21.75-9.39-26.46z" fill="#1296db" p-id="2363" data-spm-anchor-id="a313x.7781069.0.i2" class="selected"></path><path d="M870.34 243.11c-6.59-8.77-19.04-10.5-27.8-3.95-8.77 6.59-10.53 19.04-3.95 27.8C892.04 338.09 920.3 422.83 920.3 512c0 225.14-183.16 408.3-408.3 408.3-20.93 0-42.28-1.68-63.47-5.01-10.79-1.59-20.98 5.73-22.69 16.55-1.7 10.83 5.72 20.99 16.55 22.69 23.21 3.62 46.62 5.47 69.6 5.47 247.03 0 448-200.97 448-448 0.01-97.85-30.99-190.83-89.65-268.89z" fill="#1296db" p-id="2364" data-spm-anchor-id="a313x.7781069.0.i0" class="selected"></path></svg>