<?xml version="1.0" standalone="no"?><!DOCTYPE svg PUBLIC "-//W3C//DTD SVG 1.1//EN" "http://www.w3.org/Graphics/SVG/1.1/DTD/svg11.dtd"><svg t="1690795293388" class="icon" viewBox="0 0 1024 1024" version="1.1" xmlns="http://www.w3.org/2000/svg" p-id="1606" xmlns:xlink="http://www.w3.org/1999/xlink" width="200" height="200"><path d="M139.92648391 487.59330854c15.16362507-222.14191067 200.16497524-397.63723468 426.15531511-397.63723468 235.91315815 0 427.15850986 191.24535169 427.15850984 427.15850987 0.0006578 235.91381599-191.24469389 427.15916768-427.15785394 427.15916763-144.64741311 0-272.4850657-71.91184423-349.75867721-181.92076719 0 0-4.12913862-43.79938068 19.10408977-53.65974625 18.90358275-8.0229287 56.83236662 16.04059868 56.83236665 16.04059868 63.15459709 80.1175303 161.05812739 131.55263031 270.98290481 131.55263032 190.45581078 0 344.85117488-154.39667781 344.85117302-344.84591615 0-190.45712642-154.39667781-344.8478877-344.85117302-344.84788768-181.30346619 0-329.93538928 139.91806532-343.79275765 317.67156523l54.12189926-65.01044335c12.17441981-14.62718427 32.52494288-15.32008679 45.45603174-1.55146677 12.92911729 13.76138784 13.53984207 36.77373019 1.37265444 51.40091442l-114.33988421 137.33644846c-7.97559625 9.58294333-19.46631726 13.1822174-30.07940876 10.65056237-6.06452945-1.13138746-11.90817287-4.24484229-16.72101027-9.36797193l-121.02565784-128.85005107c-12.88901516-13.7186563-13.49842619-36.64816497-1.36410851-51.22013056 12.13300391-14.57130586 32.40726767-15.26486432 45.29562688-1.55212459l57.75995989 61.49334324z m385.19590819 100.39442533c-6.45634163-4.42036746-16.6986578-14.73171262-17.28703196-25.97130699-1.34438538-25.45656085 0-72.49890279 0-72.49890279v-189.52230288c0-19.5964834 17.15620993-35.47733314 38.31796665-35.47733318 21.15452455 0 38.31139228 15.88150756 38.3113923 35.47733318V533.75999248l129.2162255 74.59864351c16.96884974 9.79857062 22.14654401 32.59528566 11.56566469 50.92298519-10.58022151 18.32769953-32.91281004 25.24356293-49.88363137 15.44630602l-90.89694508-52.4836538s-37.79993334-19.51891035-59.34364073-34.25653953z" p-id="1607" fill="#ffffff"></path></svg>