<?xml version="1.0" standalone="no"?><!DOCTYPE svg PUBLIC "-//W3C//DTD SVG 1.1//EN" "http://www.w3.org/Graphics/SVG/1.1/DTD/svg11.dtd"><svg t="1690808546697" class="icon" viewBox="0 0 1024 1024" version="1.1" xmlns="http://www.w3.org/2000/svg" p-id="9105" xmlns:xlink="http://www.w3.org/1999/xlink" width="50" height="50"><path d="M583.573333 96.746667l3.84 3.669333 381.44 381.418667a42.666667 42.666667 0 0 1-57.642666 62.826666l-2.709334-2.496L527.082667 160.768a21.333333 21.333333 0 0 0-28.16-1.792l-2.005334 1.792-267.221333 267.242667c2.709333 5.077333 4.416 10.773333 4.864 16.810666L234.666667 448v384c0 22.464 17.472 40.917333 39.68 42.56l3.2 0.106667H384v-192a42.666667 42.666667 0 0 1 39.466667-42.56L426.666667 640h192a42.666667 42.666667 0 0 1 42.56 39.466667L661.333333 682.666667v88.213333a42.666667 42.666667 0 0 1-85.226666 3.178667l-0.106667-3.2V725.333333h-106.666667v192a42.666667 42.666667 0 0 1-39.466666 42.56L426.666667 960h-149.12a128.106667 128.106667 0 0 1-128.128-123.2L149.333333 832V508.330667l-33.834666 33.834666a42.666667 42.666667 0 0 1-62.826667-57.621333l2.496-2.709333L436.565333 100.416a106.666667 106.666667 0 0 1 146.986667-3.669333zM832 597.333333a42.666667 42.666667 0 0 1 42.56 39.466667L874.666667 640v190.997333c0 69.482667-54.442667 126.357333-122.837334 128.917334l-4.8 0.085333H597.333333a42.666667 42.666667 0 0 1-3.2-85.226667L597.333333 874.666667h149.696c22.144 0 40.554667-17.685333 42.197334-40.384l0.106666-3.285334V640a42.666667 42.666667 0 0 1 42.666667-42.666667z" fill="#ffffff" p-id="9106"></path></svg>