<?xml version="1.0" standalone="no"?><!DOCTYPE svg PUBLIC "-//W3C//DTD SVG 1.1//EN" "http://www.w3.org/Graphics/SVG/1.1/DTD/svg11.dtd"><svg t="1690900532459" class="icon" viewBox="0 0 1024 1024" version="1.1" xmlns="http://www.w3.org/2000/svg" p-id="13203" xmlns:xlink="http://www.w3.org/1999/xlink" width="50" height="50"><path d="M128.01376 447.813287A319.988534 319.988534 0 0 1 448.002293 127.995413a319.988534 319.988534 0 1 1 0 639.721077A319.988534 319.988534 0 0 1 128.01376 447.813287z m872.075417 436.720351L826.186075 710.374545A453.359755 453.359755 0 0 0 452.866119 0 453.359755 453.359755 0 0 0 0.018346 453.701076a453.274424 453.274424 0 0 0 452.933103 453.615745 450.117204 450.117204 0 0 0 258.294745-81.234422l173.56178 173.903102a81.490413 81.490413 0 0 0 115.366533 0 81.917065 81.917065 0 0 0 0-115.451863h-0.08533z" fill="#1296db" p-id="13204"></path></svg>