<?xml version="1.0" standalone="no"?><!DOCTYPE svg PUBLIC "-//W3C//DTD SVG 1.1//EN" "http://www.w3.org/Graphics/SVG/1.1/DTD/svg11.dtd"><svg t="1690878160464" class="icon" viewBox="0 0 1024 1024" version="1.1" xmlns="http://www.w3.org/2000/svg" p-id="3770" xmlns:xlink="http://www.w3.org/1999/xlink" width="50" height="50"><path d="M1014.970544 82.872218A85.095985 85.095985 0 0 0 927.620361 0.030432h-49.592362a56.354957 56.354957 0 0 0-49.592362 32.122325l-11.834541 24.232632a35.503623 35.503623 0 0 1-14.08874 14.652288 30.995226 30.995226 0 0 1-42.266217-13.525189l-13.52519-22.541983a56.354957 56.354957 0 0 0-50.719461-29.868127L113.291233 17.500468a112.709914 112.709914 0 0 0-112.709914 115.527662l8.453243 394.484699 1014.389226-21.414884zM239.526336 747.860711h73.824994a99.748274 99.748274 0 0 1 38.321371 6.199045 102.566022 102.566022 0 0 1 59.736254 130.7435 99.748274 99.748274 0 0 0-6.199045 38.321371A102.002472 102.002472 0 0 0 507.775931 1023.43645h34.376524a101.438923 101.438923 0 0 0 38.321371-7.889694 103.129571 103.129571 0 0 0 56.354957-134.688347 112.709914 112.709914 0 0 1-8.453244-38.32137 102.566022 102.566022 0 0 1 100.875373-104.82022h73.261444A225.419828 225.419828 0 0 0 1014.970544 563.580001l-997.482738 19.724235a225.419828 225.419828 0 0 0 222.03853 164.556475z" fill="#d4237a" p-id="3771" data-spm-anchor-id="a313x.7781069.0.i0.58a33a81i4DKuh" class="selected"></path></svg>